<svg width="64" height="64" viewBox="0 0 64 64" fill="none" xmlns="http://www.w3.org/2000/svg">
  <rect width="64" height="64" rx="16" fill="#121212"/>
  <path d="M16 20C16 17.7909 17.7909 16 20 16H44C46.2091 16 48 17.7909 48 20V44C48 46.2091 46.2091 48 44 48H20C17.7909 48 16 46.2091 16 44V20Z" fill="#2A2A2A"/>
  <path d="M25 24H39C41.2091 24 43 25.7909 43 28V40C43 42.2091 41.2091 44 39 44H25C22.7909 44 21 42.2091 21 40V28C21 25.7909 22.7909 24 25 24Z" fill="#5D5FEF"/>
  <path d="M28 32H36C37.1046 32 38 32.8954 38 34V36C38 37.1046 37.1046 38 36 38H28C26.8954 38 26 37.1046 26 36V34C26 32.8954 26.8954 32 28 32Z" fill="white"/>
  <path d="M32 24V44" stroke="white" stroke-width="2" stroke-linecap="round"/>
</svg> 