<svg width="240" height="60" viewBox="0 0 240 60" fill="none" xmlns="http://www.w3.org/2000/svg">
  <!-- Logo Icon -->
  <g transform="translate(10, 10) scale(0.65)">
    <rect width="64" height="64" rx="16" fill="#121212"/>
    <path d="M16 20C16 17.7909 17.7909 16 20 16H44C46.2091 16 48 17.7909 48 20V44C48 46.2091 46.2091 48 44 48H20C17.7909 48 16 46.2091 16 44V20Z" fill="#2A2A2A"/>
    <path d="M25 24H39C41.2091 24 43 25.7909 43 28V40C43 42.2091 41.2091 44 39 44H25C22.7909 44 21 42.2091 21 40V28C21 25.7909 22.7909 24 25 24Z" fill="#9c5def"/>
    <path d="M28 32H36C37.1046 32 38 32.8954 38 34V36C38 37.1046 37.1046 38 36 38H28C26.8954 38 26 37.1046 26 36V34C26 32.8954 26.8954 32 28 32Z" fill="white"/>
    <path d="M32 24V44" stroke="white" stroke-width="2" stroke-linecap="round"/>
  </g>

  <!-- Text -->
  <g transform="translate(60, 33)">
    <!-- File -->
    <path d="M2 2H12V5H5V10H10V13H5V22H2V2Z" fill="#9c5def"/>
    <path d="M14 2H17V14C17 15.1667 17.2917 16.0833 17.875 16.75C18.4583 17.4167 19.3333 17.75 20.5 17.75C21.6667 17.75 22.5417 17.4167 23.125 16.75C23.7083 16.0833 24 15.1667 24 14V2H27V14C27 16 26.4583 17.5833 25.375 18.75C24.2917 19.9167 22.6667 20.5 20.5 20.5C18.3333 20.5 16.7083 19.9167 15.625 18.75C14.5417 17.5833 14 16 14 14V2Z" fill="#9c5def"/>
    <path d="M30 2H33V19H41V22H30V2Z" fill="#9c5def"/>
    <path d="M43 2H53.5C55.5 2 57.0833 2.54167 58.25 3.625C59.4167 4.70833 60 6.16667 60 8C60 9.33333 59.6667 10.4583 59 11.375C58.3333 12.2917 57.4167 12.9583 56.25 13.375L60.5 22H57L53 13.5H46V22H43V2ZM46 5V10.5H53.5C54.6667 10.5 55.5417 10.2083 56.125 9.625C56.7083 9.04167 57 8.26667 57 7.3C57 6.36667 56.7083 5.625 56.125 5.075C55.5417 4.525 54.6667 4.25 53.5 4.25L46 5Z" fill="#9c5def"/>
    <path d="M68 2H73.5C76.5 2 78.7917 2.70833 80.375 4.125C81.9583 5.54167 82.75 7.58333 82.75 10.25C82.75 12.8333 81.9583 14.8333 80.375 16.25C78.7917 17.6667 76.5 18.375 73.5 18.375H71V22H68V2ZM71 5V15.375H73.5C75.5 15.375 77 14.9167 78 14C79 13.0833 79.5 11.8333 79.5 10.25C79.5 8.58333 79 7.29167 78 6.375C77 5.45833 75.5 5 73.5 5H71Z" fill="white"/>
    <path d="M85 2H88V22H85V2Z" fill="white"/>
    <path d="M91 22L91 2H94V19H102V22H91Z" fill="white"/>
    <path d="M112.5 2V5H105.5V10.5H111.5V13.5H105.5V19H112.5V22H102.5V2H112.5Z" fill="white"/>
  </g>

  <!-- Secure Lock Icon -->
  <g transform="translate(180, 20)">
    <rect x="0" y="0" width="20" height="20" rx="5" fill="none" stroke="#9c5def" stroke-width="1.5"/>
    <path d="M6 8V6C6 3.79086 7.79086 2 10 2V2C12.2091 2 14 3.79086 14 6V8" stroke="#9c5def" stroke-width="1.5"/>
    <circle cx="10" cy="12" r="2" fill="#9c5def"/>
  </g>
  
  <!-- Secure Data Transfer Line -->
  <g transform="translate(170, 10)">
    <path d="M2 22L40 2" stroke="#9c5def" stroke-width="1" stroke-dasharray="2 2"/>
    <circle cx="40" cy="2" r="1.5" fill="#9c5def"/>
    <circle cx="2" cy="22" r="1.5" fill="#9c5def"/>
  </g>
</svg> 